<svg version="1.1" id="Layer_1" xmlns="http://www.w3.org/2000/svg" xmlns:xlink="http://www.w3.org/1999/xlink" x="0px" y="0px"
	 width="100%" viewBox="0 0 202 250" enable-background="new 0 0 202 250" xml:space="preserve">
<path fill="#000000" opacity="1.000000" stroke="none" 
	d="
M203.000000,83.000000 
	C203.000000,139.333328 203.000000,195.166672 203.000000,251.000000 
	C135.666672,251.000000 68.333336,251.000000 1.000000,251.000000 
	C1.000000,167.666672 1.000000,84.333336 1.000000,1.000000 
	C68.333336,1.000000 135.666672,1.000000 203.000000,1.000000 
	C203.000000,28.166666 203.000000,55.333332 203.000000,83.000000 
M189.946564,104.089783 
	C189.906265,93.052078 189.865967,82.014366 189.963791,70.126259 
	C188.339417,58.593327 186.838135,47.040272 184.960129,35.548790 
	C184.673050,33.792171 182.979370,31.589573 181.361359,30.848623 
	C175.721603,28.265955 169.996231,25.487028 163.998596,24.148209 
	C151.211655,21.293856 138.306519,18.692116 125.312592,17.123489 
	C113.414200,15.687113 101.300728,14.897466 89.345818,15.385504 
	C77.550117,15.867043 65.685539,17.612040 54.125496,20.085014 
	C42.589138,22.552921 31.366764,26.528046 20.083874,30.086937 
	C18.801802,30.491335 17.449883,32.336422 17.105892,33.750744 
	C15.927437,38.595982 14.937837,43.516815 14.331517,48.464611 
	C13.413919,55.952549 12.878581,63.487328 12.112751,71.500702 
	C12.144835,71.665306 12.176918,71.829918 12.098218,72.926506 
	C12.134830,82.617737 12.171443,92.308975 12.112337,102.494545 
	C12.135488,102.660782 12.158637,102.827011 12.054591,103.870667 
	C12.507450,115.899956 13.939498,127.854866 17.066698,139.440781 
	C21.087311,154.336716 25.483038,169.004562 33.482361,182.633362 
	C42.978447,198.812256 54.867641,212.332794 70.303207,222.689209 
	C77.189117,227.309265 84.595634,231.240799 92.065697,234.867218 
	C96.010612,236.782333 100.056915,238.562012 105.189026,236.536591 
	C120.526115,230.483734 133.940765,221.516632 145.979782,210.546356 
	C156.983719,200.519287 165.284729,188.211426 171.972092,174.994690 
	C183.078644,153.043991 187.799973,129.351074 189.946564,104.089783 
z"/>
<path fill="#0C5798" opacity="1.000000" stroke="none" 
	d="
M12.208055,102.000206 
	C12.171443,92.308975 12.134830,82.617737 12.238487,72.346252 
	C12.478171,71.473465 12.412192,71.218864 12.180819,71.002205 
	C12.878581,63.487328 13.413919,55.952549 14.331517,48.464611 
	C14.937837,43.516815 15.927437,38.595982 17.105892,33.750744 
	C17.449883,32.336422 18.801802,30.491335 20.083874,30.086937 
	C31.366764,26.528046 42.589138,22.552921 54.125496,20.085014 
	C65.685539,17.612040 77.550117,15.867043 89.345818,15.385504 
	C101.300728,14.897466 113.414200,15.687113 125.312592,17.123489 
	C138.306519,18.692116 151.211655,21.293856 163.998596,24.148209 
	C169.996231,25.487028 175.721603,28.265955 181.361359,30.848623 
	C182.979370,31.589573 184.673050,33.792171 184.960129,35.548790 
	C186.838135,47.040272 188.339417,58.593327 189.556641,70.733429 
	C188.785233,72.051781 188.110214,72.760124 188.103668,73.474571 
	C188.017319,82.917549 187.966446,92.362152 188.089249,101.803963 
	C188.103302,102.884811 189.220032,103.951302 189.825485,105.024445 
	C187.799973,129.351074 183.078644,153.043991 171.972092,174.994690 
	C165.284729,188.211426 156.983719,200.519287 145.979782,210.546356 
	C133.940765,221.516632 120.526115,230.483734 105.189026,236.536591 
	C100.056915,238.562012 96.010612,236.782333 92.065697,234.867218 
	C84.595634,231.240799 77.189117,227.309265 70.303207,222.689209 
	C54.867641,212.332794 42.978447,198.812256 33.482361,182.633362 
	C25.483038,169.004562 21.087311,154.336716 17.066698,139.440781 
	C13.939498,127.854866 12.507450,115.899956 12.208706,103.322113 
	C12.479835,102.486687 12.428246,102.228905 12.208055,102.000206 
M18.416346,119.946556 
	C19.988132,127.759613 21.117943,135.692932 23.205645,143.365616 
	C34.216984,183.834290 57.436996,214.183609 96.844765,230.720612 
	C98.964195,231.610001 102.108513,231.599487 104.230659,230.708939 
	C136.754898,217.060440 159.263290,193.505981 171.996582,160.737213 
	C185.476181,126.047791 186.796890,90.052856 182.357819,53.610409 
	C181.558395,47.047447 181.407410,38.764938 177.447449,34.671524 
	C173.164017,30.243748 164.885162,29.305622 158.146072,27.693443 
	C127.608727,20.388052 96.739876,17.502764 65.633919,23.329317 
	C52.140614,25.856789 38.894794,29.719448 25.560888,33.072365 
	C22.839802,33.756607 21.400772,35.367920 20.791599,38.566341 
	C15.702073,65.288605 15.008991,92.108543 18.416346,119.946556 
z"/>
<path fill="#004A90" opacity="1.000000" stroke="none" 
	d="
M189.886017,104.557114 
	C189.220032,103.951302 188.103302,102.884811 188.089249,101.803963 
	C187.966446,92.362152 188.017319,82.917549 188.103668,73.474571 
	C188.110214,72.760124 188.785233,72.051781 189.487579,71.158630 
	C189.865967,82.014366 189.906265,93.052078 189.886017,104.557114 
z"/>
<path fill="#004890" opacity="1.000000" stroke="none" 
	d="
M12.160196,102.247375 
	C12.428246,102.228905 12.479835,102.486687 12.272304,102.883408 
	C12.158637,102.827011 12.135488,102.660782 12.160196,102.247375 
z"/>
<path fill="#004890" opacity="1.000000" stroke="none" 
	d="
M12.146785,71.251450 
	C12.412192,71.218864 12.478171,71.473465 12.293880,71.880264 
	C12.176918,71.829918 12.144835,71.665306 12.146785,71.251450 
z"/>
<path fill="#FAFBFC" opacity="1.000000" stroke="none" 
	d="
M18.337845,119.509567 
	C15.008991,92.108543 15.702073,65.288605 20.791599,38.566341 
	C21.400772,35.367920 22.839802,33.756607 25.560888,33.072365 
	C38.894794,29.719448 52.140614,25.856789 65.633919,23.329317 
	C96.739876,17.502764 127.608727,20.388052 158.146072,27.693443 
	C164.885162,29.305622 173.164017,30.243748 177.447449,34.671524 
	C181.407410,38.764938 181.558395,47.047447 182.357819,53.610409 
	C186.796890,90.052856 185.476181,126.047791 171.996582,160.737213 
	C159.263290,193.505981 136.754898,217.060440 104.230659,230.708939 
	C102.108513,231.599487 98.964195,231.610001 96.844765,230.720612 
	C57.436996,214.183609 34.216984,183.834290 23.205645,143.365616 
	C21.117943,135.692932 19.988132,127.759613 18.337845,119.509567 
M106.742241,113.195503 
	C105.776161,110.840027 104.810074,108.484543 104.480812,105.681976 
	C103.371017,98.688446 102.261223,91.694908 101.151428,84.701378 
	C99.122963,89.676346 97.936859,94.599380 97.100876,99.581161 
	C96.743103,101.713142 97.114555,103.967491 96.745300,106.727119 
	C95.927460,109.119514 95.109612,111.511909 94.043625,114.653572 
	C94.059586,115.176537 94.075539,115.699493 93.766090,116.906387 
	C93.442085,118.922485 93.118080,120.938576 92.358917,123.601105 
	C92.638779,124.227707 92.918640,124.854317 92.442291,125.761871 
	C91.929787,127.814262 91.417274,129.866653 90.482422,132.410706 
	C90.379730,133.252045 90.277031,134.093384 89.954102,135.724121 
	C85.583946,157.523926 81.176880,179.316422 76.857841,201.126343 
	C74.374840,213.664780 74.439049,213.677475 85.640167,219.888702 
	C99.881058,227.785538 101.049446,227.786499 115.375900,219.913269 
	C126.674248,213.704132 126.673805,213.704254 124.196648,201.183044 
	C124.132187,200.857208 124.123985,200.520126 124.057640,200.194794 
	C119.615768,178.412720 115.170601,156.631302 110.756256,134.253632 
	C110.523376,133.509369 110.290489,132.765121 110.166992,131.235626 
	C109.643242,129.239517 109.119492,127.243416 108.901619,124.685028 
	C108.713799,124.095222 108.525978,123.505417 108.347343,122.127426 
	C107.881081,120.138718 107.414818,118.150009 107.022888,115.406609 
	C106.928902,114.912903 106.834915,114.419189 106.742241,113.195503 
M138.821533,138.140167 
	C144.844360,139.718948 150.867172,141.297729 156.551987,143.707581 
	C153.545288,160.058075 150.538574,176.408585 147.496918,192.949127 
	C148.200729,192.740616 148.611969,192.748337 148.766418,192.553009 
	C150.311386,190.598984 151.892319,188.666077 153.315826,186.624512 
	C161.710846,174.584534 168.550491,161.800095 172.175995,146.845337 
	C172.355011,146.286591 172.534027,145.727844 173.028381,144.534119 
	C173.288727,142.665939 173.549072,140.797745 174.341873,138.530853 
	C174.537857,137.933029 174.733841,137.335220 175.117157,135.920822 
	C175.185684,133.711380 175.254211,131.501938 175.997574,129.225357 
	C176.286209,128.495255 176.574844,127.765137 177.046600,126.277176 
	C177.087677,124.315170 177.128738,122.353157 177.880569,119.758087 
	C177.956436,119.135620 178.032288,118.513153 178.465042,117.175812 
	C181.664185,92.043236 180.099060,67.108643 174.784515,42.199478 
	C170.533630,65.796890 166.282745,89.394295 161.228653,113.004486 
	C155.147797,111.576736 149.066925,110.148987 143.095184,107.946732 
	C147.319717,83.108002 151.544250,58.269276 155.938629,32.431973 
	C140.056946,30.251646 124.699661,28.143311 108.645836,25.939346 
	C114.007401,53.526443 119.107025,79.765800 124.125832,106.610550 
	C124.504028,107.305443 124.882225,108.000343 124.806107,109.496056 
	C125.232498,111.559074 125.658890,113.622093 125.998245,116.197731 
	C126.216049,116.831558 126.433853,117.465393 126.592148,118.894783 
	C127.055740,120.914803 127.519325,122.934830 127.902504,125.591438 
	C128.080933,126.194977 128.259369,126.798515 128.153244,128.162186 
	C128.670334,130.182022 129.187439,132.201859 129.765045,134.883514 
	C129.948044,135.519470 130.131027,136.155411 130.045120,137.597672 
	C131.325851,144.302444 132.606583,151.007202 133.887329,157.711975 
	C134.135391,157.666016 134.383469,157.620041 134.631546,157.574081 
	C135.765472,151.122711 136.899399,144.671356 138.821533,138.140167 
M70.945511,136.143051 
	C71.133598,135.480606 71.321686,134.818161 71.915146,133.594269 
	C71.969040,131.666931 72.022926,129.739594 72.319168,127.255966 
	C72.598526,126.529419 72.877884,125.802872 73.791466,124.465866 
	C74.090195,122.402115 74.388924,120.338356 74.960861,117.776649 
	C74.919182,117.033318 74.877502,116.289993 75.100418,114.834435 
	C75.442307,112.791405 75.784195,110.748375 76.497612,108.250648 
	C76.625725,107.497055 76.753838,106.743462 77.125641,105.224442 
	C82.197762,79.087029 87.269890,52.949612 92.545280,25.764729 
	C76.173172,28.087137 60.971672,30.243496 45.359161,32.458157 
	C49.734844,58.660107 53.916187,83.698326 57.328690,108.994095 
	C51.255772,110.285896 45.182854,111.577690 39.055950,112.058762 
	C34.850784,88.819557 30.645622,65.580353 26.440460,42.341145 
	C25.231276,43.111629 25.001389,43.812805 24.948387,44.527100 
	C23.622122,62.400940 22.010197,80.261765 21.163397,98.158699 
	C20.853743,104.703163 22.368225,111.333946 22.886793,118.605316 
	C23.001596,119.288002 23.116400,119.970688 23.041079,121.472771 
	C23.473852,123.365555 23.906626,125.258347 24.355164,127.841125 
	C24.646177,128.446625 24.937191,129.052139 24.922611,130.324478 
	C25.315926,132.238510 25.709240,134.152542 25.993803,136.734970 
	C26.419321,137.460510 26.844839,138.186050 26.906078,139.612335 
	C27.321362,141.375854 27.736647,143.139389 28.056438,145.573227 
	C28.379288,146.155884 28.702137,146.738556 29.014599,148.059738 
	C33.882446,164.534790 41.391529,179.588089 53.436672,192.387512 
	C50.437962,175.799988 47.439251,159.212479 45.138439,142.257431 
	C51.090542,140.897903 57.042645,139.538376 63.111610,138.961227 
	C64.186287,144.850937 65.260963,150.740631 66.335640,156.630341 
	C66.741608,156.670563 67.147575,156.710785 67.553543,156.751007 
	C68.601990,150.096649 69.650444,143.442291 70.945511,136.143051 
z"/>
<path fill="#055696" opacity="1.000000" stroke="none" 
	d="
M110.725723,134.849854 
	C115.170601,156.631302 119.615768,178.412720 124.057640,200.194794 
	C124.123985,200.520126 124.132187,200.857208 124.196648,201.183044 
	C126.673805,213.704254 126.674248,213.704132 115.375900,219.913269 
	C101.049446,227.786499 99.881058,227.785538 85.640167,219.888702 
	C74.439049,213.677475 74.374840,213.664780 76.857841,201.126343 
	C81.176880,179.316422 85.583946,157.523926 90.521362,135.322357 
	C97.634323,134.897003 104.180023,134.873428 110.725723,134.849854 
M103.153160,203.884613 
	C107.601860,207.086380 110.816238,204.369110 113.202522,201.166367 
	C117.593437,195.273087 117.227051,188.719543 114.500114,180.646317 
	C112.652504,184.809814 110.655830,187.650589 110.198303,190.720734 
	C109.473450,195.584671 107.539673,199.072952 102.312500,200.665848 
	C102.671722,199.022491 102.974442,197.364136 103.405571,195.739868 
	C103.863007,194.016525 104.825676,192.341919 104.899338,190.617462 
	C105.159973,184.515656 105.099930,178.389999 110.500565,173.415588 
	C108.237167,173.415588 105.973763,173.415588 103.809906,173.415588 
	C102.876907,171.466400 101.865707,169.353836 100.378685,166.247208 
	C98.697777,169.487549 97.561554,171.677887 96.932068,172.891357 
	C94.152809,173.136673 92.189621,173.309952 90.166039,173.488556 
	C92.108757,176.446396 94.076088,178.424759 94.827682,180.789551 
	C96.603210,186.376007 94.503868,192.906265 98.956955,197.952209 
	C99.361778,198.410965 98.796844,199.725540 98.676811,200.686234 
	C92.844894,199.698196 91.639481,195.390900 90.871338,190.291382 
	C90.575058,189.619263 90.278786,188.947144 89.868782,187.553619 
	C88.841209,185.646805 87.813637,183.739990 86.131050,180.617706 
	C85.555939,183.308517 85.270576,184.643646 84.634590,186.643951 
	C84.747849,189.111069 84.861107,191.578186 84.900513,194.809616 
	C85.494301,199.202652 87.570976,202.802017 91.707748,204.397827 
	C93.754074,205.187225 96.356537,204.534927 98.653824,204.534927 
	C99.087692,205.637238 99.727303,207.262253 100.865273,210.153397 
	C101.893150,206.679932 102.415970,204.913193 103.153160,203.884613 
z"/>
<path fill="#055696" opacity="1.000000" stroke="none" 
	d="
M124.206657,106.005157 
	C119.107025,79.765800 114.007401,53.526443 108.645836,25.939346 
	C124.699661,28.143311 140.056946,30.251646 155.938629,32.431973 
	C151.544250,58.269276 147.319717,83.108002 142.650635,108.336510 
	C136.206268,107.819244 130.206467,106.912201 124.206657,106.005157 
M120.605972,54.660252 
	C121.952873,55.482071 123.299774,56.303890 124.224312,56.868004 
	C123.132713,59.543465 122.276756,61.641388 121.147797,64.408417 
	C124.944115,64.205978 128.041336,64.040817 131.311859,63.866413 
	C131.527237,66.435280 131.793381,69.609726 132.059525,72.784164 
	C132.627563,72.755966 133.195602,72.727768 133.763641,72.699570 
	C133.763641,69.560677 133.763641,66.421791 133.763641,63.823299 
	C137.611633,64.001251 140.859070,64.151436 144.640366,64.326302 
	C143.382874,61.447842 142.449341,59.310932 141.760956,57.735149 
	C144.300201,54.733669 146.724411,51.868172 149.148621,49.002678 
	C148.871399,48.478733 148.594177,47.954788 148.316940,47.430843 
	C144.539444,47.986977 140.761932,48.543106 137.749725,48.986572 
	C136.456802,45.855621 135.064865,42.484932 133.672943,39.114243 
	C133.074036,39.145634 132.475128,39.177025 131.876236,39.208416 
	C130.614807,42.668812 129.353378,46.129208 128.272263,49.094975 
	C124.981461,48.593388 121.253067,48.025105 116.549004,47.308109 
	C118.157242,50.502213 119.093536,52.361774 120.605972,54.660252 
z"/>
<path fill="#055696" opacity="1.000000" stroke="none" 
	d="
M58.097527,108.736549 
	C53.916187,83.698326 49.734844,58.660107 45.359161,32.458157 
	C60.971672,30.243496 76.173172,28.087137 92.545280,25.764729 
	C87.269890,52.949612 82.197762,79.087029 76.580864,105.616364 
	C70.056564,106.917702 64.077049,107.827126 58.097527,108.736549 
M80.839828,58.841293 
	C83.490562,56.553284 83.708275,53.139736 81.413567,51.514877 
	C79.458900,50.130798 75.952377,50.938343 73.004448,50.768970 
	C74.991264,45.619640 71.656578,42.073383 66.536949,38.004425 
	C64.440331,42.567608 62.598846,46.575497 61.128803,49.774967 
	C58.454926,50.592464 54.807262,50.654724 53.443020,52.451103 
	C52.309795,53.943295 53.863033,57.475685 54.274391,60.452976 
	C60.375298,57.928890 62.546097,58.843731 62.048450,63.337051 
	C61.467422,68.583290 65.269173,69.896370 68.659897,72.950249 
	C70.477921,70.061089 73.123238,67.689713 73.373505,65.087944 
	C73.940033,59.198357 74.118584,58.528988 80.839828,58.841293 
z"/>
<path fill="#065797" opacity="1.000000" stroke="none" 
	d="
M23.050549,117.925346 
	C22.368225,111.333946 20.853743,104.703163 21.163397,98.158699 
	C22.010197,80.261765 23.622122,62.400940 24.948387,44.527100 
	C25.001389,43.812805 25.231276,43.111629 26.440460,42.341145 
	C30.645622,65.580353 34.850784,88.819557 38.729752,112.628708 
	C33.285885,114.774223 28.168217,116.349785 23.050549,117.925346 
z"/>
<path fill="#065697" opacity="1.000000" stroke="none" 
	d="
M162.031860,112.991707 
	C166.282745,89.394295 170.533630,65.796890 174.784515,42.199478 
	C180.099060,67.108643 181.664185,92.043236 177.920410,117.451324 
	C172.261139,116.148468 167.146500,114.570091 162.031860,112.991707 
z"/>
<path fill="#065697" opacity="1.000000" stroke="none" 
	d="
M44.440540,142.624954 
	C47.439251,159.212479 50.437962,175.799988 53.436672,192.387512 
	C41.391529,179.588089 33.882446,164.534790 29.402884,147.606506 
	C34.674294,145.643829 39.557415,144.134384 44.440540,142.624954 
z"/>
<path fill="#065697" opacity="1.000000" stroke="none" 
	d="
M171.899445,147.367706 
	C168.550491,161.800095 161.710846,174.584534 153.315826,186.624512 
	C151.892319,188.666077 150.311386,190.598984 148.766418,192.553009 
	C148.611969,192.748337 148.200729,192.740616 147.496918,192.949127 
	C150.538574,176.408585 153.545288,160.058075 157.063202,143.299561 
	C162.349442,144.383591 167.124435,145.875641 171.899445,147.367706 
z"/>
<path fill="#0A5795" opacity="1.000000" stroke="none" 
	d="
M24.339397,127.151131 
	C23.906626,125.258347 23.473852,123.365555 23.456942,120.936554 
	C41.290565,116.502007 58.708324,112.603676 76.126083,108.705345 
	C75.784195,110.748375 75.442307,112.791405 74.537201,115.257294 
	C57.429127,119.503815 40.884262,123.327477 24.339397,127.151131 
z"/>
<path fill="#0B5897" opacity="1.000000" stroke="none" 
	d="
M126.085281,115.685112 
	C125.658890,113.622093 125.232498,111.559074 125.438324,109.170219 
	C143.103638,112.693306 160.136734,116.542229 177.169815,120.391151 
	C177.128738,122.353157 177.087677,124.315170 176.586395,126.610703 
	C159.445892,123.191200 142.765594,119.438156 126.085281,115.685112 
z"/>
<path fill="#0B5896" opacity="1.000000" stroke="none" 
	d="
M127.982910,124.954849 
	C127.519325,122.934830 127.055740,120.914803 127.050270,118.514725 
	C143.446503,121.853943 159.384628,125.573227 175.322739,129.292496 
	C175.254211,131.501938 175.185684,133.711380 174.674194,136.254868 
	C158.815109,132.710892 143.399017,128.832870 127.982910,124.954849 
z"/>
<path fill="#0A5896" opacity="1.000000" stroke="none" 
	d="
M74.687653,118.274605 
	C74.388924,120.338356 74.090195,122.402115 73.045654,124.713196 
	C56.900749,128.662537 41.501652,132.364563 26.102554,136.066574 
	C25.709240,134.152542 25.315926,132.238510 25.465790,129.882874 
	C42.235199,125.719040 58.461426,121.996826 74.687653,118.274605 
z"/>
<path fill="#0B5897" opacity="1.000000" stroke="none" 
	d="
M72.076813,127.812256 
	C72.022926,129.739594 71.969040,131.666931 71.270767,133.836487 
	C56.468231,137.686783 42.310081,141.294846 28.151932,144.902924 
	C27.736647,143.139389 27.321362,141.375854 27.395834,139.083832 
	C42.616001,134.974304 57.346409,131.393280 72.076813,127.812256 
z"/>
<path fill="#0A5897" opacity="1.000000" stroke="none" 
	d="
M129.704529,134.221695 
	C129.187439,132.201859 128.670334,130.182022 128.682831,127.903961 
	C144.078079,131.407013 158.943756,135.168289 173.809418,138.929565 
	C173.549072,140.797745 173.288727,142.665939 172.474411,144.718323 
	C157.848465,141.342255 143.776505,137.781982 129.704529,134.221695 
z"/>
<path fill="#ECCA22" opacity="1.000000" stroke="none" 
	d="
M74.824257,118.025627 
	C58.461426,121.996826 42.235199,125.719040 25.618587,129.549438 
	C24.937191,129.052139 24.646177,128.446625 24.347281,127.496124 
	C40.884262,123.327477 57.429127,119.503815 74.404907,115.613403 
	C74.877502,116.289993 74.919182,117.033318 74.824257,118.025627 
z"/>
<path fill="#EECD2E" opacity="1.000000" stroke="none" 
	d="
M177.525192,120.074615 
	C160.136734,116.542229 143.103638,112.693306 125.665482,108.769806 
	C124.882225,108.000343 124.504028,107.305443 124.166245,106.307854 
	C130.206467,106.912201 136.206268,107.819244 142.596069,108.723755 
	C149.066925,110.148987 155.147797,111.576736 161.630249,112.998093 
	C167.146500,114.570091 172.261139,116.148468 177.741974,117.808762 
	C178.032288,118.513153 177.956436,119.135620 177.525192,120.074615 
z"/>
<path fill="#EBC71C" opacity="1.000000" stroke="none" 
	d="
M76.311844,108.477997 
	C58.708324,112.603676 41.290565,116.502007 23.552004,120.526855 
	C23.116400,119.970688 23.001596,119.288002 22.968670,118.265335 
	C28.168217,116.349785 33.285885,114.774223 38.756744,113.034073 
	C45.182854,111.577690 51.255772,110.285896 57.713108,108.865326 
	C64.077049,107.827126 70.056564,106.917702 76.459015,105.999077 
	C76.753838,106.743462 76.625725,107.497055 76.311844,108.477997 
z"/>
<path fill="#EBC921" opacity="1.000000" stroke="none" 
	d="
M175.660156,129.258926 
	C159.384628,125.573227 143.446503,121.853943 127.080032,118.116943 
	C126.433853,117.465393 126.216049,116.831558 126.041763,115.941422 
	C142.765594,119.438156 159.445892,123.191200 176.494843,126.989639 
	C176.574844,127.765137 176.286209,128.495255 175.660156,129.258926 
z"/>
<path fill="#F2CC18" opacity="1.000000" stroke="none" 
	d="
M72.197998,127.534111 
	C57.346409,131.393280 42.616001,134.974304 27.577972,138.733459 
	C26.844839,138.186050 26.419321,137.460510 26.048180,136.400772 
	C41.501652,132.364563 56.900749,128.662537 72.728546,125.018425 
	C72.877884,125.802872 72.598526,126.529419 72.197998,127.534111 
z"/>
<path fill="#115C9A" opacity="1.000000" stroke="none" 
	d="
M90.904762,131.919037 
	C91.417274,129.866653 91.929787,127.814262 93.155731,125.606720 
	C98.778023,125.383476 103.686882,125.315399 108.595734,125.247314 
	C109.119492,127.243416 109.643242,129.239517 109.640366,131.635590 
	C103.044075,131.996719 96.974419,131.957886 90.904762,131.919037 
z"/>
<path fill="#EECC28" opacity="1.000000" stroke="none" 
	d="
M174.075653,138.730209 
	C158.943756,135.168289 144.078079,131.407013 128.825104,127.523895 
	C128.259369,126.798515 128.080933,126.194977 127.942703,125.273148 
	C143.399017,128.832870 158.815109,132.710892 174.580521,136.663147 
	C174.733841,137.335220 174.537857,137.933029 174.075653,138.730209 
z"/>
<path fill="#EDC91B" opacity="1.000000" stroke="none" 
	d="
M28.104185,145.238068 
	C42.310081,141.294846 56.468231,137.686783 71.068077,134.117218 
	C71.321686,134.818161 71.133598,135.480606 70.441360,136.529465 
	C67.623055,137.336868 65.308899,137.757858 62.994743,138.178864 
	C57.042645,139.538376 51.090542,140.897903 44.789490,142.441193 
	C39.557415,144.134384 34.674294,145.643829 29.408077,147.237244 
	C28.702137,146.738556 28.379288,146.155884 28.104185,145.238068 
z"/>
<path fill="#EFCB1E" opacity="1.000000" stroke="none" 
	d="
M129.734787,134.552612 
	C143.776505,137.781982 157.848465,141.342255 172.316742,145.035812 
	C172.534027,145.727844 172.355011,146.286591 172.037720,147.106522 
	C167.124435,145.875641 162.349442,144.383591 157.232208,142.884018 
	C150.867172,141.297729 144.844360,139.718948 138.050949,138.057159 
	C134.958252,137.579880 132.636139,137.185623 130.314026,136.791367 
	C130.131027,136.155411 129.948044,135.519470 129.734787,134.552612 
z"/>
<path fill="#1D5F92" opacity="1.000000" stroke="none" 
	d="
M97.154663,106.166237 
	C97.114555,103.967491 96.743103,101.713142 97.100876,99.581161 
	C97.936859,94.599380 99.122963,89.676346 101.151428,84.701378 
	C102.261223,91.694908 103.371017,98.688446 103.745270,105.884880 
	C101.058037,106.113937 99.106354,106.140091 97.154663,106.166237 
z"/>
<path fill="#155B93" opacity="1.000000" stroke="none" 
	d="
M92.794075,122.954674 
	C93.118080,120.938576 93.442085,118.922485 94.384766,116.556396 
	C98.985146,116.191376 102.966850,116.176338 106.948563,116.161301 
	C107.414818,118.150009 107.881081,120.138718 107.852219,122.542801 
	C102.502754,122.957008 97.648415,122.955841 92.794075,122.954674 
z"/>
<path fill="#0E5898" opacity="1.000000" stroke="none" 
	d="
M130.179565,137.194519 
	C132.636139,137.185623 134.958252,137.579880 137.656860,138.097076 
	C136.899399,144.671356 135.765472,151.122711 134.631546,157.574081 
	C134.383469,157.620041 134.135391,157.666016 133.887329,157.711975 
	C132.606583,151.007202 131.325851,144.302444 130.179565,137.194519 
z"/>
<path fill="#0F5898" opacity="1.000000" stroke="none" 
	d="
M63.053177,138.570038 
	C65.308899,137.757858 67.623055,137.336868 70.318047,136.851898 
	C69.650444,143.442291 68.601990,150.096649 67.553543,156.751007 
	C67.147575,156.710785 66.741608,156.670563 66.335640,156.630341 
	C65.260963,150.740631 64.186287,144.850937 63.053177,138.570038 
z"/>
<path fill="#125C9A" opacity="1.000000" stroke="none" 
	d="
M96.949982,106.446678 
	C99.106354,106.140091 101.058037,106.113937 103.426857,106.108429 
	C104.810074,108.484543 105.776161,110.840027 106.299286,113.578354 
	C102.001480,113.942230 98.146629,113.923264 94.291779,113.904305 
	C95.109612,111.511909 95.927460,109.119514 96.949982,106.446678 
z"/>
<path fill="#DCC02A" opacity="1.000000" stroke="none" 
	d="
M90.693588,132.164871 
	C96.974419,131.957886 103.044075,131.996719 109.585670,132.028198 
	C110.290489,132.765121 110.523376,133.509369 110.740990,134.551743 
	C104.180023,134.873428 97.634323,134.897003 90.631477,134.927643 
	C90.277031,134.093384 90.379730,133.252045 90.693588,132.164871 
z"/>
<path fill="#FFD505" opacity="1.000000" stroke="none" 
	d="
M92.576492,123.277893 
	C97.648415,122.955841 102.502754,122.957008 107.847626,122.936890 
	C108.525978,123.505417 108.713799,124.095222 108.748672,124.966171 
	C103.686882,125.315399 98.778023,125.383476 93.533829,125.466240 
	C92.918640,124.854317 92.638779,124.227707 92.576492,123.277893 
z"/>
<path fill="#FFD400" opacity="1.000000" stroke="none" 
	d="
M94.167702,114.278938 
	C98.146629,113.923264 102.001480,113.942230 106.298630,113.943344 
	C106.834915,114.419189 106.928902,114.912903 106.985725,115.783951 
	C102.966850,116.176338 98.985146,116.191376 94.547462,116.214432 
	C94.075539,115.699493 94.059586,115.176537 94.167702,114.278938 
z"/>
<path fill="#F9CD0B" opacity="1.000000" stroke="none" 
	d="
M90.731598,190.850113 
	C91.639481,195.390900 92.844894,199.698196 98.676811,200.686234 
	C98.796844,199.725540 99.361778,198.410965 98.956955,197.952209 
	C94.503868,192.906265 96.603210,186.376007 94.827682,180.789551 
	C94.076088,178.424759 92.108757,176.446396 90.166039,173.488556 
	C92.189621,173.309952 94.152809,173.136673 96.932068,172.891357 
	C97.561554,171.677887 98.697777,169.487549 100.378685,166.247208 
	C101.865707,169.353836 102.876907,171.466400 103.809906,173.415588 
	C105.973763,173.415588 108.237167,173.415588 110.500565,173.415588 
	C105.099930,178.389999 105.159973,184.515656 104.899338,190.617462 
	C104.825676,192.341919 103.863007,194.016525 103.405571,195.739868 
	C102.974442,197.364136 102.671722,199.022491 102.649490,201.194519 
	C102.970589,202.197617 102.954697,202.672028 102.938797,203.146454 
	C102.415970,204.913193 101.893150,206.679932 100.865273,210.153397 
	C99.727303,207.262253 99.087692,205.637238 98.653824,204.534927 
	C96.356537,204.534927 93.754074,205.187225 91.707748,204.397827 
	C87.570976,202.802017 85.494301,199.202652 84.950455,193.980011 
	C84.995338,190.759857 84.990273,188.369308 84.985214,185.978775 
	C85.270576,184.643646 85.555939,183.308517 86.131050,180.617706 
	C87.813637,183.739990 88.841209,185.646805 89.930939,188.190277 
	C90.239258,189.501328 90.485428,190.175720 90.731598,190.850113 
z"/>
<path fill="#F9CD08" opacity="1.000000" stroke="none" 
	d="
M103.045975,203.515533 
	C102.954697,202.672028 102.970589,202.197617 102.990997,201.367096 
	C107.539673,199.072952 109.473450,195.584671 110.198303,190.720734 
	C110.655830,187.650589 112.652504,184.809814 114.500114,180.646317 
	C117.227051,188.719543 117.593437,195.273087 113.202522,201.166367 
	C110.816238,204.369110 107.601860,207.086380 103.045975,203.515533 
z"/>
<path fill="#F7CC0D" opacity="1.000000" stroke="none" 
	d="
M84.809906,186.311371 
	C84.990273,188.369308 84.995338,190.759857 84.987381,193.597839 
	C84.861107,191.578186 84.747849,189.111069 84.809906,186.311371 
z"/>
<path fill="#F7CC0D" opacity="1.000000" stroke="none" 
	d="
M90.801468,190.570740 
	C90.485428,190.175720 90.239258,189.501328 89.987793,188.550980 
	C90.278786,188.947144 90.575058,189.619263 90.801468,190.570740 
z"/>
<path fill="#F8CD0B" opacity="1.000000" stroke="none" 
	d="
M120.317902,54.440796 
	C119.093536,52.361774 118.157242,50.502213 116.549004,47.308109 
	C121.253067,48.025105 124.981461,48.593388 128.272263,49.094975 
	C129.353378,46.129208 130.614807,42.668812 131.876236,39.208416 
	C132.475128,39.177025 133.074036,39.145634 133.672943,39.114243 
	C135.064865,42.484932 136.456802,45.855621 137.749725,48.986572 
	C140.761932,48.543106 144.539444,47.986977 148.316940,47.430843 
	C148.594177,47.954788 148.871399,48.478733 149.148621,49.002678 
	C146.724411,51.868172 144.300201,54.733669 141.760956,57.735149 
	C142.449341,59.310932 143.382874,61.447842 144.640366,64.326302 
	C140.859070,64.151436 137.611633,64.001251 133.763641,63.823299 
	C133.763641,66.421791 133.763641,69.560677 133.763641,72.699570 
	C133.195602,72.727768 132.627563,72.755966 132.059525,72.784164 
	C131.793381,69.609726 131.527237,66.435280 131.311859,63.866413 
	C128.041336,64.040817 124.944115,64.205978 121.147797,64.408417 
	C122.276756,61.641388 123.132713,59.543465 124.224312,56.868004 
	C123.299774,56.303890 121.952873,55.482071 120.317902,54.440796 
z"/>
<path fill="#FBCE0A" opacity="1.000000" stroke="none" 
	d="
M80.437759,58.928905 
	C74.118584,58.528988 73.940033,59.198357 73.373505,65.087944 
	C73.123238,67.689713 70.477921,70.061089 68.659897,72.950249 
	C65.269173,69.896370 61.467422,68.583290 62.048450,63.337051 
	C62.546097,58.843731 60.375298,57.928890 54.274391,60.452976 
	C53.863033,57.475685 52.309795,53.943295 53.443020,52.451103 
	C54.807262,50.654724 58.454926,50.592464 61.128803,49.774967 
	C62.598846,46.575497 64.440331,42.567608 66.536949,38.004425 
	C71.656578,42.073383 74.991264,45.619640 73.004448,50.768970 
	C75.952377,50.938343 79.458900,50.130798 81.413567,51.514877 
	C83.708275,53.139736 83.490562,56.553284 80.437759,58.928905 
z"/>
</svg>