<svg version="1.1" id="Layer_1" xmlns="http://www.w3.org/2000/svg" xmlns:xlink="http://www.w3.org/1999/xlink" x="0px" y="0px"
	 width="100%" viewBox="0 0 202 250" enable-background="new 0 0 202 250" xml:space="preserve">
<path fill="#FEFEFE" opacity="1.000000" stroke="none" 
	d="
M203.000000,83.000000 
	C203.000000,139.333328 203.000000,195.166672 203.000000,251.000000 
	C135.666672,251.000000 68.333336,251.000000 1.000000,251.000000 
	C1.000000,167.666672 1.000000,84.333336 1.000000,1.000000 
	C68.333336,1.000000 135.666672,1.000000 203.000000,1.000000 
	C203.000000,28.166666 203.000000,55.333332 203.000000,83.000000 
M12.008433,103.846130 
	C14.684165,119.209183 16.014465,134.958679 20.294771,149.860855 
	C31.873184,190.171921 56.718750,219.531342 95.982391,235.746887 
	C98.200958,236.663132 101.320160,237.041168 103.468925,236.222595 
	C119.826065,229.991470 134.410141,220.810211 146.794510,208.390198 
	C175.276260,179.826538 185.952881,143.964722 188.983139,104.069923 
	C189.003815,101.040207 189.024490,98.010490 189.282455,94.079597 
	C189.207947,89.727097 189.133438,85.374596 189.195801,80.120262 
	C189.078644,77.094414 188.961487,74.068558 188.970856,70.164040 
	C188.308762,63.541328 188.113022,56.831841 186.899734,50.311695 
	C182.771881,28.128412 188.863281,31.855392 165.242355,24.973843 
	C133.303818,15.669106 100.598152,12.893883 67.495293,18.224564 
	C51.419590,20.813297 35.295776,23.266651 20.416838,30.413689 
	C19.002724,31.092951 17.243849,32.655056 17.044495,34.012779 
	C15.236448,46.326584 13.739959,58.686142 11.998874,71.946777 
	C11.980301,76.305794 11.961728,80.664803 11.702742,85.850220 
	C11.782899,87.559799 11.863056,89.269371 11.765752,91.888748 
	C11.894454,95.579025 12.023156,99.269302 12.008433,103.846130 
z"/>
<path fill="#0B5798" opacity="1.000000" stroke="none" 
	d="
M189.058929,81.022095 
	C189.133438,85.374596 189.207947,89.727097 188.865463,94.802536 
	C188.580414,98.672234 188.712357,101.818993 188.844299,104.965744 
	C185.952881,143.964722 175.276260,179.826538 146.794510,208.390198 
	C134.410141,220.810211 119.826065,229.991470 103.468925,236.222595 
	C101.320160,237.041168 98.200958,236.663132 95.982391,235.746887 
	C56.718750,219.531342 31.873184,190.171921 20.294771,149.860855 
	C16.014465,134.958679 14.684165,119.209183 12.344971,103.097130 
	C12.435410,98.558403 12.189312,94.768677 11.943214,90.978951 
	C11.863056,89.269371 11.782899,87.559799 12.129635,85.152878 
	C12.421775,79.981125 12.287021,75.506714 12.152266,71.032303 
	C13.739959,58.686142 15.236448,46.326584 17.044495,34.012779 
	C17.243849,32.655056 19.002724,31.092951 20.416838,30.413689 
	C35.295776,23.266651 51.419590,20.813297 67.495293,18.224564 
	C100.598152,12.893883 133.303818,15.669106 165.242355,24.973843 
	C188.863281,31.855392 182.771881,28.128412 186.899734,50.311695 
	C188.113022,56.831841 188.308762,63.541328 188.647034,70.902466 
	C188.568451,74.767952 188.813690,77.895027 189.058929,81.022095 
M112.425346,227.012207 
	C140.955643,212.690475 160.547333,190.251297 172.012360,160.684967 
	C185.471115,125.977196 186.797638,89.980888 182.335083,53.532700 
	C181.533234,46.983555 181.341080,38.717888 177.375626,34.641628 
	C173.072845,30.218626 164.806946,29.272867 158.065491,27.665293 
	C127.516533,20.380556 96.638184,17.537565 65.526375,23.338934 
	C52.191059,25.825550 39.073769,29.541439 25.954498,33.060703 
	C24.027729,33.577560 21.528538,35.892643 21.169535,37.740116 
	C14.254333,73.326637 13.902308,108.918045 23.398813,144.088196 
	C33.356735,180.967178 54.182949,209.528168 88.819260,227.374863 
	C96.975616,231.577515 104.104141,232.769455 112.425346,227.012207 
z"/>
<path fill="#004A90" opacity="1.000000" stroke="none" 
	d="
M12.075570,71.489540 
	C12.287021,75.506714 12.421775,79.981125 12.249842,84.739677 
	C11.961728,80.664803 11.980301,76.305794 12.075570,71.489540 
z"/>
<path fill="#004A90" opacity="1.000000" stroke="none" 
	d="
M11.854483,91.433853 
	C12.189312,94.768677 12.435410,98.558403 12.416683,102.653854 
	C12.023156,99.269302 11.894454,95.579025 11.854483,91.433853 
z"/>
<path fill="#004A90" opacity="1.000000" stroke="none" 
	d="
M189.127365,80.571182 
	C188.813690,77.895027 188.568451,74.767952 188.583771,71.341797 
	C188.961487,74.068558 189.078644,77.094414 189.127365,80.571182 
z"/>
<path fill="#004A90" opacity="1.000000" stroke="none" 
	d="
M188.913727,104.517838 
	C188.712357,101.818993 188.580414,98.672234 188.746826,95.253128 
	C189.024490,98.010490 189.003815,101.040207 188.913727,104.517838 
z"/>
<path fill="#FAFBFC" opacity="1.000000" stroke="none" 
	d="
M112.085701,227.169586 
	C104.104141,232.769455 96.975616,231.577515 88.819260,227.374863 
	C54.182949,209.528168 33.356735,180.967178 23.398813,144.088196 
	C13.902308,108.918045 14.254333,73.326637 21.169535,37.740116 
	C21.528538,35.892643 24.027729,33.577560 25.954498,33.060703 
	C39.073769,29.541439 52.191059,25.825550 65.526375,23.338934 
	C96.638184,17.537565 127.516533,20.380556 158.065491,27.665293 
	C164.806946,29.272867 173.072845,30.218626 177.375626,34.641628 
	C181.341080,38.717888 181.533234,46.983555 182.335083,53.532700 
	C186.797638,89.980888 185.471115,125.977196 172.012360,160.684967 
	C160.547333,190.251297 140.955643,212.690475 112.085701,227.169586 
M94.033669,114.650986 
	C94.049507,115.176819 94.065338,115.702660 93.756874,116.910545 
	C93.438553,118.925926 93.120224,120.941299 92.372055,123.526085 
	C92.468826,124.185394 92.565598,124.844704 92.127731,126.024544 
	C91.721344,127.990715 91.314949,129.956894 90.464607,132.399414 
	C90.367363,133.245148 90.270126,134.090866 89.954384,135.726578 
	C85.257767,159.147644 80.825554,182.627045 75.679947,205.949051 
	C74.382011,211.831848 75.693039,215.006241 80.882233,217.152725 
	C81.337639,217.341095 81.733078,217.669189 82.174942,217.896225 
	C104.095963,229.159698 97.065933,229.168243 119.239471,217.628876 
	C126.792862,213.697998 126.718750,213.356964 125.047043,205.073898 
	C120.321434,181.659210 115.511833,158.261475 110.787621,134.253357 
	C110.544579,133.509003 110.301537,132.764633 110.165276,131.233978 
	C109.642014,129.238770 109.118752,127.243568 108.907539,124.684891 
	C108.710060,124.096931 108.512581,123.508965 108.335129,122.132027 
	C107.876495,120.142990 107.417854,118.153946 107.033180,115.406662 
	C106.937828,114.911018 106.842476,114.415382 106.746452,113.191818 
	C105.780518,110.816750 104.814590,108.441673 104.506691,105.664673 
	C103.361519,98.555779 102.216354,91.446892 101.071182,84.337997 
	C99.128403,89.697243 97.921501,95.029121 97.018860,100.412018 
	C96.683098,102.414330 97.059479,104.536064 96.277870,107.108574 
	C95.613800,109.371902 94.949730,111.635231 94.033669,114.650986 
M130.045105,137.613434 
	C131.345703,144.397141 132.646301,151.180832 133.946899,157.964539 
	C134.165710,157.915466 134.384521,157.866394 134.603317,157.817322 
	C135.746460,151.284485 136.889603,144.751633 138.813217,138.138855 
	C144.829666,139.728882 150.846100,141.318909 156.529694,143.735428 
	C153.533020,160.077881 150.536362,176.420349 147.539688,192.762802 
	C159.169861,179.402679 167.786240,164.577988 172.173492,146.966705 
	C172.376343,146.353561 172.579193,145.740417 173.066788,144.376984 
	C173.326828,142.565948 173.586884,140.754913 174.410431,138.583862 
	C174.583282,137.968872 174.756134,137.353897 175.115723,135.928085 
	C175.196960,133.731461 175.278198,131.534851 176.039444,129.260986 
	C176.314301,128.518768 176.589172,127.776558 177.045486,126.278465 
	C177.093719,124.343498 177.141968,122.408539 177.894257,119.802040 
	C177.965729,119.165489 178.037201,118.528931 178.488480,117.194168 
	C181.644562,92.008255 180.099319,67.017441 174.810806,42.052971 
	C170.551178,65.699234 166.291534,89.345505 161.228012,113.006714 
	C155.147110,111.578789 149.066193,110.150864 143.092972,107.947807 
	C147.318802,83.107384 151.544647,58.266964 155.938309,32.440018 
	C140.074615,30.258057 124.715958,28.145561 108.646637,25.935318 
	C114.007751,53.525112 119.106453,79.764488 124.111526,106.603287 
	C124.473549,107.306290 124.835571,108.009293 124.804230,109.539230 
	C125.230629,111.586166 125.657028,113.633110 125.994713,116.196274 
	C126.226234,116.828697 126.457756,117.461121 126.614578,118.889458 
	C127.071068,120.911331 127.527557,122.933212 127.905655,125.598984 
	C128.082443,126.205254 128.259232,126.811523 128.148895,128.175980 
	C128.675140,130.192230 129.201401,132.208496 129.789001,134.885788 
	C129.960129,135.523651 130.131256,136.161514 130.045105,137.613434 
M63.109303,138.960342 
	C64.187157,144.861053 65.265007,150.761780 66.342865,156.662506 
	C66.743523,156.704544 67.144173,156.746597 67.544830,156.788651 
	C68.599625,150.124512 69.654427,143.460388 70.940392,136.148453 
	C71.116409,135.484695 71.292427,134.820923 71.901718,133.611420 
	C71.959961,131.678345 72.018211,129.745270 72.315918,127.255341 
	C72.595886,126.529053 72.875854,125.802757 73.792366,124.474861 
	C74.099640,122.418068 74.406914,120.361267 74.970985,117.799026 
	C74.926208,117.048820 74.881432,116.298622 75.099655,114.838097 
	C75.449326,112.800987 75.798996,110.763870 76.539490,108.285835 
	C76.653770,107.520439 76.768051,106.755051 77.125900,105.223701 
	C82.198746,79.079544 87.271591,52.935387 92.543999,25.762732 
	C76.190430,28.084513 60.987278,30.242966 45.361561,32.461411 
	C49.735550,58.657082 53.916595,83.697212 57.326820,108.994064 
	C51.254238,110.286507 45.181656,111.578949 39.056049,112.059853 
	C34.844021,88.822968 30.631994,65.586082 26.419968,42.349194 
	C21.739962,60.920956 20.417212,79.473312 21.075199,98.141754 
	C21.308157,104.751190 22.367640,111.331497 22.890358,118.608513 
	C23.001764,119.293045 23.113171,119.977585 23.038656,121.479294 
	C23.467463,123.367722 23.896269,125.256149 24.314894,127.837379 
	C24.635159,128.426392 24.955425,129.015396 24.949080,130.270248 
	C25.333288,132.202148 25.717497,134.134033 25.990515,136.738281 
	C26.407011,137.465271 26.823509,138.192261 26.904722,139.631653 
	C27.320465,141.388733 27.736208,143.145798 28.050827,145.574142 
	C28.376719,146.155182 28.702612,146.736237 29.014679,148.056656 
	C33.882648,164.534821 41.395348,179.591095 53.406151,192.412354 
	C50.441917,175.826691 47.477680,159.241043 45.183182,142.263977 
	C51.120846,140.902359 57.058510,139.540756 63.109303,138.960342 
z"/>
<path fill="#055696" opacity="1.000000" stroke="none" 
	d="
M110.735336,134.857056 
	C115.511833,158.261475 120.321434,181.659210 125.047043,205.073898 
	C126.718750,213.356964 126.792862,213.697998 119.239471,217.628876 
	C97.065933,229.168243 104.095963,229.159698 82.174942,217.896225 
	C81.733078,217.669189 81.337639,217.341095 80.882233,217.152725 
	C75.693039,215.006241 74.382011,211.831848 75.679947,205.949051 
	C80.825554,182.627045 85.257767,159.147644 90.519745,135.325287 
	C97.635185,134.901688 104.185257,134.879364 110.735336,134.857056 
M90.872643,190.324707 
	C90.569283,189.626221 90.265930,188.927719 89.853447,187.514145 
	C88.830429,185.620132 87.807404,183.726120 86.126297,180.613724 
	C85.553467,183.306732 85.269989,184.639465 84.618629,186.629974 
	C84.737854,189.104599 84.857079,191.579224 84.902145,194.817001 
	C85.488731,199.234940 87.604683,202.820190 91.749054,204.423859 
	C93.785469,205.211838 96.378860,204.560440 98.680115,204.560440 
	C99.091438,205.621124 99.727142,207.260422 100.859787,210.181168 
	C101.893341,206.694565 102.417946,204.924835 103.157806,203.891098 
	C107.609558,207.070221 110.824005,204.365829 113.211807,201.156906 
	C117.598694,195.261490 117.204742,188.709442 114.540428,180.556091 
	C112.650406,184.813080 110.652222,187.651031 110.198128,190.717621 
	C109.477402,195.584747 107.537338,199.068100 102.313385,200.669479 
	C102.672752,199.025848 102.975830,197.367294 103.406914,195.742691 
	C103.864281,194.019012 104.827957,192.343567 104.899590,190.619186 
	C105.153290,184.512680 105.105949,178.389465 110.511452,173.419586 
	C108.246086,173.419586 105.980721,173.419586 103.797707,173.419586 
	C102.881653,171.483719 101.873917,169.354126 100.396263,166.231476 
	C98.713829,169.466187 97.568039,171.669128 96.912140,172.930176 
	C94.182709,173.145035 92.200081,173.301086 90.116791,173.465088 
	C92.075928,176.409912 94.043861,178.379288 94.825760,180.741272 
	C96.669128,186.309814 94.451630,192.872757 98.957314,197.909698 
	C99.372490,198.373810 98.811058,199.711533 98.697380,200.693024 
	C92.902702,199.735748 91.641808,195.463150 90.872643,190.324707 
z"/>
<path fill="#055696" opacity="1.000000" stroke="none" 
	d="
M124.205154,106.003860 
	C119.106453,79.764488 114.007751,53.525112 108.646637,25.935318 
	C124.715958,28.145561 140.074615,30.258057 155.938309,32.440018 
	C151.544647,58.266964 147.318802,83.107384 142.648926,108.335587 
	C136.204971,107.816864 130.205063,106.910362 124.205154,106.003860 
M143.922714,55.265022 
	C145.618423,53.096714 147.314133,50.928410 149.009842,48.760105 
	C148.738007,48.295361 148.466171,47.830620 148.194336,47.365879 
	C144.504684,47.954937 140.815018,48.543995 137.685318,49.043655 
	C136.446945,46.008846 135.033676,42.545456 133.620422,39.082066 
	C132.994278,39.154655 132.368134,39.227245 131.741989,39.299835 
	C130.532471,42.783737 129.322952,46.267635 128.372894,49.004181 
	C124.813202,48.490097 121.147354,47.960682 117.481506,47.431267 
	C117.204475,47.924141 116.927444,48.417015 116.650406,48.909889 
	C119.024353,51.809429 121.398300,54.708965 123.946907,57.821838 
	C123.268127,59.324059 122.297180,61.472904 121.142448,64.028473 
	C124.680809,64.028473 127.905228,64.028473 131.283005,64.028473 
	C131.492935,66.438667 131.769791,69.617302 132.046661,72.795944 
	C132.618057,72.766800 133.189438,72.737663 133.760834,72.708527 
	C133.760834,69.564613 133.760834,66.420700 133.760834,63.820541 
	C137.617569,64.000618 140.873459,64.152641 144.519806,64.322891 
	C143.575592,61.825882 142.718597,60.052341 142.292297,58.180702 
	C142.130127,57.468693 142.957520,56.531288 143.922714,55.265022 
z"/>
<path fill="#055696" opacity="1.000000" stroke="none" 
	d="
M58.097641,108.737350 
	C53.916595,83.697212 49.735550,58.657082 45.361561,32.461411 
	C60.987278,30.242966 76.190430,28.084513 92.543999,25.762732 
	C87.271591,52.935387 82.198746,79.079544 76.581146,105.615677 
	C70.056801,106.917549 64.077225,107.827446 58.097641,108.737350 
M62.046200,49.398846 
	C61.268425,49.840523 60.539387,50.473450 59.703350,50.686504 
	C57.557457,51.233376 53.765289,51.157509 53.504070,52.114639 
	C52.848511,54.516666 53.781494,57.352230 54.118263,60.381363 
	C60.372341,57.872185 62.522636,58.874969 62.069584,63.642162 
	C61.571922,68.878769 65.377220,70.022194 68.150711,72.398338 
	C71.260010,69.332596 74.697891,67.337280 73.636787,62.305054 
	C73.116043,59.835457 75.338791,58.263523 78.348061,58.899841 
	C81.839264,59.638062 82.827370,57.347332 82.694382,54.548306 
	C82.548943,51.486904 81.013687,49.415184 77.566261,50.078125 
	C76.049095,50.369877 74.637863,51.212532 72.528152,52.069141 
	C74.989204,45.643734 71.666061,42.084801 66.474731,37.944981 
	C64.796623,41.887638 63.375465,45.226589 62.046200,49.398846 
z"/>
<path fill="#065797" opacity="1.000000" stroke="none" 
	d="
M23.049784,117.925102 
	C22.367640,111.331497 21.308157,104.751190 21.075199,98.141754 
	C20.417212,79.473312 21.739962,60.920956 26.419968,42.349194 
	C30.631994,65.586082 34.844021,88.822968 38.726597,112.626671 
	C33.281357,114.770699 28.165571,116.347900 23.049784,117.925102 
z"/>
<path fill="#065697" opacity="1.000000" stroke="none" 
	d="
M162.031891,112.991768 
	C166.291534,89.345505 170.551178,65.699234 174.810806,42.052971 
	C180.099319,67.017441 181.644562,92.008255 177.934265,117.461777 
	C172.263992,116.150185 167.147949,114.570976 162.031891,112.991768 
z"/>
<path fill="#065697" opacity="1.000000" stroke="none" 
	d="
M44.513443,142.655396 
	C47.477680,159.241043 50.441917,175.826691 53.406151,192.412354 
	C41.395348,179.591095 33.882648,164.534821 29.406324,147.603210 
	C34.703129,145.651627 39.608288,144.153503 44.513443,142.655396 
z"/>
<path fill="#065697" opacity="1.000000" stroke="none" 
	d="
M171.907608,147.378922 
	C167.786240,164.577988 159.169861,179.402679 147.539688,192.762802 
	C150.536362,176.420349 153.533020,160.077881 157.033890,143.315704 
	C162.327927,144.390289 167.117767,145.884598 171.907608,147.378922 
z"/>
<path fill="#0A5795" opacity="1.000000" stroke="none" 
	d="
M24.325073,127.144577 
	C23.896269,125.256149 23.467463,123.367722 23.451046,120.947784 
	C41.291847,116.519768 58.720257,112.623260 76.148666,108.726761 
	C75.798996,110.763870 75.449326,112.800987 74.537384,115.262405 
	C57.425095,119.506004 40.875084,123.325287 24.325073,127.144577 
z"/>
<path fill="#0B5897" opacity="1.000000" stroke="none" 
	d="
M177.190201,120.473572 
	C177.141968,122.408539 177.093719,124.343498 176.586395,126.611603 
	C159.446014,123.189850 142.764725,119.434952 126.083427,115.680054 
	C125.657028,113.633110 125.230629,111.586166 125.408279,109.193062 
	C143.071625,112.722450 160.130905,116.598015 177.190201,120.473572 
z"/>
<path fill="#0B5896" opacity="1.000000" stroke="none" 
	d="
M127.984047,124.955086 
	C127.527557,122.933212 127.071068,120.911331 127.080803,118.513000 
	C143.484497,121.870438 159.421967,125.604332 175.359436,129.338226 
	C175.278198,131.534851 175.196960,133.731461 174.673187,136.260315 
	C158.815109,132.713394 143.399582,128.834244 127.984047,124.955086 
z"/>
<path fill="#0A5896" opacity="1.000000" stroke="none" 
	d="
M74.714188,118.304474 
	C74.406914,120.361267 74.099640,122.418068 73.043816,124.718124 
	C56.897411,128.662903 41.499557,132.364410 26.101704,136.065933 
	C25.717497,134.134033 25.333288,132.202148 25.501179,129.836121 
	C42.273579,125.702835 58.493885,122.003654 74.714188,118.304474 
z"/>
<path fill="#0A5897" opacity="1.000000" stroke="none" 
	d="
M129.727646,134.224747 
	C129.201401,132.208496 128.675140,130.192230 128.675964,127.922134 
	C144.084320,131.426834 158.965622,135.185364 173.846924,138.943878 
	C173.586884,140.754913 173.326828,142.565948 172.570877,144.663788 
	C157.959198,141.375320 143.843414,137.800034 129.727646,134.224747 
z"/>
<path fill="#0B5897" opacity="1.000000" stroke="none" 
	d="
M28.151951,144.902878 
	C27.736208,143.145798 27.320465,141.388733 27.384811,139.108444 
	C42.602085,134.994217 57.339275,131.403214 72.076462,127.812202 
	C72.018211,129.745270 71.959961,131.678345 71.241066,133.844604 
	C56.437592,137.686157 42.294773,141.294525 28.151951,144.902878 
z"/>
<path fill="#ECCA22" opacity="1.000000" stroke="none" 
	d="
M74.842590,118.051758 
	C58.493885,122.003654 42.273579,125.702835 25.664484,129.503204 
	C24.955425,129.015396 24.635159,128.426392 24.319983,127.490974 
	C40.875084,123.325287 57.425095,119.506004 74.405884,115.617569 
	C74.881432,116.298622 74.926208,117.048820 74.842590,118.051758 
z"/>
<path fill="#EECD2E" opacity="1.000000" stroke="none" 
	d="
M177.542236,120.137802 
	C160.130905,116.598015 143.071625,112.722450 125.604965,108.779594 
	C124.835571,108.009293 124.473549,107.306290 124.158340,106.303574 
	C130.205063,106.910362 136.204971,107.816864 142.595093,108.723152 
	C149.066193,110.150864 155.147110,111.578789 161.629944,112.999237 
	C167.147949,114.570976 172.263992,116.150185 177.744370,117.810883 
	C178.037201,118.528931 177.965729,119.165489 177.542236,120.137802 
z"/>
<path fill="#EBC71C" opacity="1.000000" stroke="none" 
	d="
M76.344078,108.506294 
	C58.720257,112.623260 41.291847,116.519768 23.544008,120.539192 
	C23.113171,119.977585 23.001764,119.293045 22.970070,118.266808 
	C28.165571,116.347900 33.281357,114.770699 38.753109,113.032440 
	C45.181656,111.578949 51.254238,110.286507 57.712231,108.865707 
	C64.077225,107.827446 70.056801,106.917549 76.459358,105.998657 
	C76.768051,106.755051 76.653770,107.520439 76.344078,108.506294 
z"/>
<path fill="#EBC921" opacity="1.000000" stroke="none" 
	d="
M175.699432,129.299606 
	C159.421967,125.604332 143.484497,121.870438 127.118149,118.115044 
	C126.457756,117.461121 126.226234,116.828697 126.039070,115.938164 
	C142.764725,119.434952 159.446014,123.189850 176.495682,126.989548 
	C176.589172,127.776558 176.314301,128.518768 175.699432,129.299606 
z"/>
<path fill="#F2CC18" opacity="1.000000" stroke="none" 
	d="
M72.196190,127.533768 
	C57.339275,131.403214 42.602085,134.994217 27.552452,138.752243 
	C26.823509,138.192261 26.407011,137.465271 26.046108,136.402100 
	C41.499557,132.364410 56.897411,128.662903 72.725540,125.018936 
	C72.875854,125.802757 72.595886,126.529053 72.196190,127.533768 
z"/>
<path fill="#EECC28" opacity="1.000000" stroke="none" 
	d="
M174.128677,138.763885 
	C158.965622,135.185364 144.084320,131.426834 128.819519,127.543045 
	C128.259232,126.811523 128.082443,126.205254 127.944855,125.277039 
	C143.399582,128.834244 158.815109,132.713394 174.579803,136.665741 
	C174.756134,137.353897 174.583282,137.968872 174.128677,138.763885 
z"/>
<path fill="#115C9A" opacity="1.000000" stroke="none" 
	d="
M108.595490,125.248367 
	C109.118752,127.243568 109.642014,129.238770 109.639816,131.634583 
	C103.045753,131.997818 96.977158,131.960434 90.908554,131.923065 
	C91.314949,129.956894 91.721344,127.990715 92.798981,125.742699 
	C98.511978,125.390030 103.553734,125.319199 108.595490,125.248367 
z"/>
<path fill="#EDC91B" opacity="1.000000" stroke="none" 
	d="
M28.101389,145.238510 
	C42.294773,141.294525 56.437592,137.686157 71.024429,134.117493 
	C71.292427,134.820923 71.116409,135.484695 70.445847,136.533661 
	C67.632919,137.338959 65.314545,137.759033 62.996178,138.179123 
	C57.058510,139.540756 51.120846,140.902359 44.848312,142.459686 
	C39.608288,144.153503 34.703129,145.651627 29.413239,147.233521 
	C28.702612,146.736237 28.376719,146.155182 28.101389,145.238510 
z"/>
<path fill="#EFCB1E" opacity="1.000000" stroke="none" 
	d="
M129.758331,134.555267 
	C143.843414,137.800034 157.959198,141.375320 172.428497,145.038940 
	C172.579193,145.740417 172.376343,146.353561 172.040558,147.172821 
	C167.117767,145.884598 162.327927,144.390289 157.200317,142.902435 
	C150.846100,141.318909 144.829666,139.728882 138.040482,138.056793 
	C134.945969,137.582947 132.624176,137.191162 130.302399,136.799377 
	C130.131256,136.161514 129.960129,135.523651 129.758331,134.555267 
z"/>
<path fill="#1D5F92" opacity="1.000000" stroke="none" 
	d="
M97.111115,106.603340 
	C97.059479,104.536064 96.683098,102.414330 97.018860,100.412018 
	C97.921501,95.029121 99.128403,89.697243 101.071182,84.337997 
	C102.216354,91.446892 103.361519,98.555779 103.804840,105.853508 
	C101.105690,106.229347 99.108406,106.416344 97.111115,106.603340 
z"/>
<path fill="#155B93" opacity="1.000000" stroke="none" 
	d="
M92.801903,122.956680 
	C93.120224,120.941299 93.438553,118.925926 94.375954,116.558731 
	C98.983093,116.192909 102.971153,116.178909 106.959213,116.164909 
	C107.417854,118.153946 107.876495,120.142990 107.833282,122.545425 
	C102.488258,122.958107 97.645081,122.957390 92.801903,122.956680 
z"/>
<path fill="#0E5898" opacity="1.000000" stroke="none" 
	d="
M130.173752,137.206406 
	C132.624176,137.191162 134.945969,137.582947 137.650238,138.096771 
	C136.889603,144.751633 135.746460,151.284485 134.603317,157.817322 
	C134.384521,157.866394 134.165710,157.915466 133.946899,157.964539 
	C132.646301,151.180832 131.345703,144.397141 130.173752,137.206406 
z"/>
<path fill="#0E5898" opacity="1.000000" stroke="none" 
	d="
M63.052738,138.569733 
	C65.314545,137.759033 67.632919,137.338959 70.330261,136.857574 
	C69.654427,143.460388 68.599625,150.124512 67.544830,156.788651 
	C67.144173,156.746597 66.743523,156.704544 66.342865,156.662506 
	C65.265007,150.761780 64.187157,144.861053 63.052738,138.569733 
z"/>
<path fill="#115C9A" opacity="1.000000" stroke="none" 
	d="
M96.694489,106.855957 
	C99.108406,106.416344 101.105690,106.229347 103.475822,106.054474 
	C104.814590,108.441673 105.780518,110.816750 106.304138,113.573898 
	C102.003105,113.936852 98.144379,113.917709 94.285660,113.898567 
	C94.949730,111.635231 95.613800,109.371902 96.694489,106.855957 
z"/>
<path fill="#DCC02A" opacity="1.000000" stroke="none" 
	d="
M90.686584,132.161240 
	C96.977158,131.960434 103.045753,131.997818 109.586426,132.027740 
	C110.301537,132.764633 110.544579,133.509003 110.761475,134.555206 
	C104.185257,134.879364 97.635185,134.901688 90.628998,134.930298 
	C90.270126,134.090866 90.367363,133.245148 90.686584,132.161240 
z"/>
<path fill="#FFD505" opacity="1.000000" stroke="none" 
	d="
M92.586975,123.241379 
	C97.645081,122.957390 102.488258,122.958107 107.823273,122.939911 
	C108.512581,123.508965 108.710060,124.096931 108.751511,124.966629 
	C103.553734,125.319199 98.511978,125.390030 93.066292,125.482437 
	C92.565598,124.844704 92.468826,124.185394 92.586975,123.241379 
z"/>
<path fill="#FFD505" opacity="1.000000" stroke="none" 
	d="
M94.159668,114.274780 
	C98.144379,113.917709 102.003105,113.936852 106.304474,113.937866 
	C106.842476,114.415382 106.937828,114.911018 106.996201,115.785782 
	C102.971153,116.178909 98.983093,116.192909 94.538101,116.217697 
	C94.065338,115.702660 94.049507,115.176819 94.159668,114.274780 
z"/>
<path fill="#F9CD0B" opacity="1.000000" stroke="none" 
	d="
M102.942558,203.155121 
	C102.417946,204.924835 101.893341,206.694565 100.859787,210.181168 
	C99.727142,207.260422 99.091438,205.621124 98.680115,204.560440 
	C96.378860,204.560440 93.785469,205.211838 91.749054,204.423859 
	C87.604683,202.820190 85.488731,199.234940 84.951126,193.986420 
	C84.995567,190.761292 84.991035,188.366730 84.986511,185.972183 
	C85.269989,184.639465 85.553467,183.306732 86.126297,180.613724 
	C87.807404,183.726120 88.830429,185.620132 89.914917,188.164307 
	C90.229172,189.512833 90.481956,190.211182 90.734741,190.909531 
	C91.641808,195.463150 92.902702,199.735748 98.697380,200.693024 
	C98.811058,199.711533 99.372490,198.373810 98.957314,197.909698 
	C94.451630,192.872757 96.669128,186.309814 94.825760,180.741272 
	C94.043861,178.379288 92.075928,176.409912 90.116791,173.465088 
	C92.200081,173.301086 94.182709,173.145035 96.912140,172.930176 
	C97.568039,171.669128 98.713829,169.466187 100.396263,166.231476 
	C101.873917,169.354126 102.881653,171.483719 103.797707,173.419586 
	C105.980721,173.419586 108.246086,173.419586 110.511452,173.419586 
	C105.105949,178.389465 105.153290,184.512680 104.899590,190.619186 
	C104.827957,192.343567 103.864281,194.019012 103.406914,195.742691 
	C102.975830,197.367294 102.672752,199.025848 102.653679,201.197495 
	C102.976837,202.202042 102.959702,202.678589 102.942558,203.155121 
z"/>
<path fill="#F9CD08" opacity="1.000000" stroke="none" 
	d="
M103.050186,203.523102 
	C102.959702,202.678589 102.976837,202.202042 102.995758,201.367828 
	C107.537338,199.068100 109.477402,195.584747 110.198128,190.717621 
	C110.652222,187.651031 112.650406,184.813080 114.540428,180.556091 
	C117.204742,188.709442 117.598694,195.261490 113.211807,201.156906 
	C110.824005,204.365829 107.609558,207.070221 103.050186,203.523102 
z"/>
<path fill="#F7CC0D" opacity="1.000000" stroke="none" 
	d="
M84.802567,186.301086 
	C84.991035,188.366730 84.995567,190.761292 84.988205,193.604843 
	C84.857079,191.579224 84.737854,189.104599 84.802567,186.301086 
z"/>
<path fill="#F7CC0D" opacity="1.000000" stroke="none" 
	d="
M90.803696,190.617126 
	C90.481956,190.211182 90.229172,189.512833 89.969482,188.521851 
	C90.265930,188.927719 90.569283,189.626221 90.803696,190.617126 
z"/>
<path fill="#F8CD0B" opacity="1.000000" stroke="none" 
	d="
M143.628296,55.480816 
	C142.957520,56.531288 142.130127,57.468693 142.292297,58.180702 
	C142.718597,60.052341 143.575592,61.825882 144.519806,64.322891 
	C140.873459,64.152641 137.617569,64.000618 133.760834,63.820541 
	C133.760834,66.420700 133.760834,69.564613 133.760834,72.708527 
	C133.189438,72.737663 132.618057,72.766800 132.046661,72.795944 
	C131.769791,69.617302 131.492935,66.438667 131.283005,64.028473 
	C127.905228,64.028473 124.680809,64.028473 121.142448,64.028473 
	C122.297180,61.472904 123.268127,59.324059 123.946907,57.821838 
	C121.398300,54.708965 119.024353,51.809429 116.650406,48.909889 
	C116.927444,48.417015 117.204475,47.924141 117.481506,47.431267 
	C121.147354,47.960682 124.813202,48.490097 128.372894,49.004181 
	C129.322952,46.267635 130.532471,42.783737 131.741989,39.299835 
	C132.368134,39.227245 132.994278,39.154655 133.620422,39.082066 
	C135.033676,42.545456 136.446945,46.008846 137.685318,49.043655 
	C140.815018,48.543995 144.504684,47.954937 148.194336,47.365879 
	C148.466171,47.830620 148.738007,48.295361 149.009842,48.760105 
	C147.314133,50.928410 145.618423,53.096714 143.628296,55.480816 
z"/>
<path fill="#FBCE0A" opacity="1.000000" stroke="none" 
	d="
M62.000256,48.982193 
	C63.375465,45.226589 64.796623,41.887638 66.474731,37.944981 
	C71.666061,42.084801 74.989204,45.643734 72.528152,52.069141 
	C74.637863,51.212532 76.049095,50.369877 77.566261,50.078125 
	C81.013687,49.415184 82.548943,51.486904 82.694382,54.548306 
	C82.827370,57.347332 81.839264,59.638062 78.348061,58.899841 
	C75.338791,58.263523 73.116043,59.835457 73.636787,62.305054 
	C74.697891,67.337280 71.260010,69.332596 68.150711,72.398338 
	C65.377220,70.022194 61.571922,68.878769 62.069584,63.642162 
	C62.522636,58.874969 60.372341,57.872185 54.118263,60.381363 
	C53.781494,57.352230 52.848511,54.516666 53.504070,52.114639 
	C53.765289,51.157509 57.557457,51.233376 59.703350,50.686504 
	C60.539387,50.473450 61.268425,49.840523 62.000256,48.982193 
z"/>
</svg>